# xmcd
#
# Track frame offsets: 
#        150
#        19385
#        51355
#        72022
#        93118
#        111043
#        135225
#        154894
#        177747
#        193938
#        207297
#        230064
#        254695
#        274772
#        292383
#        309677
#
# Disc length: 4348 seconds
#
# Revision: 1
# Processed by: cddbd v1.5.2PL0 Copyright (c) Steve Scherf et al.
# Submitted via: ExactAudioCopy v0.99pb5
#
DISCID=fc10fa10
DTITLE=Benedict  and  The  Magic  Band - Swing Sabor 3
DYEAR=2006
DGENRE=Salsa
TTITLE0=Los huesos
TTITLE1=Swing sabor
TTITLE2=Y todavía no
TTITLE3=Coquetona
TTITLE4=La vela
TTITLE5=El dueño de la timba
TTITLE6=La llave
TTITLE7=Medley paz
TTITLE8=Sigue feliz
TTITLE9=Tremendo problema
TTITLE10=Siguelo
TTITLE11=Bachata rosa
TTITLE12=Tengo un tumbao
TTITLE13=La cumbia verde
TTITLE14=Colombia mi sección
TTITLE15=Que viva el poderoso
EXTD=YEAR: 2006
EXTT0=
EXTT1=
EXTT2=
EXTT3=
EXTT4=
EXTT5=
EXTT6=
EXTT7=
EXTT8=
EXTT9=
EXTT10=
EXTT11=
EXTT12=
EXTT13=
EXTT14=
EXTT15=
PLAYORDER=
